# AST/ASF file generated using VICON BodyLanguage
# -----------------------------------------------
:version 1.10
:name VICON
:units
  mass 1.0
  length 0.45
  angle deg
:documentation
   .ast/.asf automatically generated from VICON data using
   VICON BodyBuilder and BodyLanguage model FoxedUp or BRILLIANT.MOD
:root
   order TX TY TZ RX RY RZ
   axis XYZ
   position 0 0 0  
   orientation 0 0 0 
:bonedata
  begin
     id 1 
     name lhipjoint
     direction 0.567725 -0.736092 0.368589 
     length 2.42353 
     axis 0 0 0  XYZ
  end
  begin
     id 2 
     name lfemur
     direction 0.34202 -0.939693 0  
     length 7.24894  
     axis 0 0 20  XYZ
    dof rx ry rz
    limits (-160.0 20.0)
           (-70.0 70.0)
           (-60.0 70.0)
  end
  begin
     id 3 
     name ltibia
     direction 0.34202 -0.939693 0   
     length 7.6997   
     axis 0 0 20   XYZ
    dof rx
    limits (-10.0 170.0)
  end
  begin
     id 4 
     name lfoot
     direction 0.100767 -0.276854 0.955614   
     length 2.37556   
     axis -90 7.62852e-016 20   XYZ
    dof rx rz
    limits (-45.0 90.0)
           (-70.0 20.0)
  end
  begin
     id 5 
     name ltoes
     direction 1.53592e-011 -4.21894e-011 1   
     length 1.18363   
     axis -90 7.62852e-016 20   XYZ
    dof rx
    limits (-90.0 20.0)
  end
  begin
     id 6 
     name rhipjoint
     direction -0.556459 -0.742938 0.372017   
     length 2.4012  
     axis 0 0 0  XYZ 
  end
  begin
     id 7 
     name rfemur
     direction -0.34202 -0.939693 0   
     length 7.5119   
     axis 0 0 -20   XYZ
    dof rx ry rz
    limits (-160.0 20.0)
           (-70.0 70.0)
           (-70.0 60.0)
  end
  begin
     id 8 
     name rtibia
     direction -0.34202 -0.939693 0   
     length 7.50155   
     axis 0 0 -20   XYZ
    dof rx
    limits (-10.0 170.0)
 end
 begin
     id 9 
     name rfoot
     direction -0.118427 -0.325376 0.938139   
     length 2.32487  
     axis -90 -7.62852e-016 -20   XYZ
    dof rx rz
    limits (-45.0 90.0)
           (-20.0 70.0)
  end
  begin
     id 10 
     name rtoes
     direction -1.53525e-011 -4.21868e-011 1   
     length 1.15233   
     axis -90 -7.62852e-016 -20   XYZ
    dof rx
    limits (-90.0 20.0)
  end
  begin
     id 11 
     name lowerback
     direction 0.0287568 0.999577 -0.00434502   
     length 2.15243   
     axis 0 0 0   XYZ
    dof rx ry rz
    limits (-20.0 45.0)
           (-30.0 30.0)
           (-30.0 30.0)
  end
  begin
     id 12 
     name upperback
     direction 0.0294009 0.99956 0.00404628   
     length 2.15427   
     axis 0 0 0   XYZ
    dof rx ry rz
    limits (-20.0 45.0)
           (-30.0 30.0)
           (-30.0 30.0)
  end
  begin
     id 13 
     name thorax
     direction 0.0151014 0.999868 0.0059419   
     length 2.14898   
     axis 0 0 0   XYZ
    dof rx ry rz
    limits (-20.0 45.0)
           (-30.0 30.0)
           (-30.0 30.0)
  end
  begin
     id 14 
     name lowerneck
     direction -0.0249197 0.989906 0.139515   
     length 1.6861   
     axis 0 0 0   XYZ
    dof rx ry rz
    limits (-20.0 45.0)
           (-30.0 30.0)
           (-30.0 30.0)
  end
  begin
     id 15 
     name upperneck
     direction 0.0438463 0.988795 -0.142693   
     length 1.71276   
     axis 0 0 0   XYZ
    dof rx ry rz
    limits (-20.0 45.0)
           (-30.0 30.0)
           (-30.0 30.0)
  end
  begin
     id 16
     name head
     direction 0.0148499 0.997845 -0.0639186  
     length 1.7209  
     axis 0 0 0   XYZ
    dof rx ry rz
    limits (-20.0 45.0)
           (-30.0 30.0)
           (-30.0 30.0)
  end
  begin
     id 17 
     name lclavicle
     direction 0.940298 0.323464 -0.105876  
     length 3.9048  
     axis 0 0 0   XYZ
    dof ry rz
    limits (-20.0 10.0)
           (0.0 20.0)
  end
  begin
     id 18 
     name lhumerus
     direction 1 -4.48954e-011 -4.9675e-028   
     length 4.6851   
     axis 180 -30 -90   XYZ
    dof rx ry rz
    limits (-60.0 90.0)
           (-90.0 90.0)
           (-90.0 90.0)
  end
  begin
     id 19
     name lradius
     direction 1 -4.48992e-011 -1.03359e-026   
     length 3.39626   
     axis 180 -30 -90   XYZ
    dof rx
    limits (-10.0 170.0)
  end
  begin
     id 20
     name lwrist
     direction 1 -4.48906e-011 -1.67336e-026   
     length 1.69813   
     axis 9.90442e-015 90 90   XYZ
    dof ry
    limits (-180.0 0.0)
 end
  begin
     id 21 
     name lhand
     direction 1 -4.49006e-011 -3.34673e-026   
     length 0.486078   
     axis 2.1355e-014 90 90   XYZ
    dof rx rz
    limits (-90.0 90.0)
           (-45.0 45.0)
  end
  begin
     id 22 
     name lfingers
     direction 1 -4.48992e-011 -6.69345e-026   
     length 0.391889   
     axis 4.27099e-014 90 90   XYZ
    dof rx
    limits (0.0 90.0)
  end
  begin
     id 23
     name lthumb
     direction 0.707107 -6.34926e-011 0.707107   
     length 0.562676   
     axis -90 45 2.85299e-015   XYZ
    dof rx rz
    limits (-45.0 45.0)
           (-45.0 45.0)
  end
  begin
     id 24 
     name rclavicle
     direction -0.882459 0.414895 -0.221648   
     length 3.44646  
     axis 0 0 0   XYZ 
    dof ry rz
    limits (-10.0 20.0)
           (-20.0 0.0)
  end
  begin
     id 25 
     name rhumerus
     direction -1 -4.48962e-011 -2.37984e-027  
     length 5.55576   
     axis 180 30 90   XYZ
    dof rx ry rz
    limits (-90.0 60.0)
           (-90.0 90.0)
           (-90.0 90.0)
  end
  begin
     id 26 
     name rradius
     direction -1 -4.48982e-011 -6.86791e-027   
     length 3.32774   
     axis 180 30 90   XYZ
    dof rx
    limits (-10.0 170.0)
  end
  begin
     id 27 
     name rwrist
     direction -1 -4.48961e-011 -1.67336e-026   
     length 1.66387   
     axis 9.90442e-015 -90 -90   XYZ
    dof ry
    limits (-180.0 0.0)
  end
  begin
     id 28
     name rhand
     direction -1 -4.4897e-011 -3.34673e-026   
     length 0.507628   
     axis 2.1355e-014 -90 -90   XYZ
    dof rx rz
    limits (-90.0 90.0)
           (-45.0 45.0)
  end
  begin
     id 29
     name rfingers
     direction -1 -4.48854e-011 -6.69345e-026   
     length 0.409263   
     axis 4.27099e-014 -90 -90   XYZ
    dof rx
    limits (0.0 90.0)
  end
  begin
     id 30
     name rthumb
     direction -0.707107 -6.34913e-011 0.707107   
     length 0.587622   
     axis -90 -45 -2.85299e-015   XYZ
    dof rx rz
    limits (-45.0 45.0)
           (-45.0 45.0)
  end
:hierarchy
  begin
    root lhipjoint rhipjoint lowerback
    lhipjoint lfemur
    lfemur ltibia
    ltibia lfoot
    lfoot ltoes
    rhipjoint rfemur
    rfemur rtibia
    rtibia rfoot
    rfoot rtoes
    lowerback upperback
    upperback thorax
    thorax lowerneck lclavicle rclavicle
    lowerneck upperneck
    upperneck head
    lclavicle lhumerus
    lhumerus lradius
    lradius lwrist
    lwrist lhand lthumb
    lhand lfingers
    rclavicle rhumerus
    rhumerus rradius
    rradius rwrist
    rwrist rhand rthumb
    rhand rfingers
  end

#!OML:ASF E:\motion texture\Top Level 1\Subject 1\Session 1\male.ASF
:FULLY-SPECIFIED
:DEGREES
99
root 30.3049 16.9289 5.92228 -13.6051 -84.3819 25.9136
lowerback 14.1323 -2.1684 3.49953
upperback 5.9929 -2.67619 -0.31965
thorax -1.75928 -1.38964 -1.88954
lowerneck -18.8874 -0.356605 -2.54985
upperneck 5.62844 -0.712008 6.94178
head 4.76328 0.0341183 2.52924
rclavicle 1.31198e-014 -7.95139e-015
rhumerus 30.7746 30.2415 -72.5392
rradius 74.6017
rwrist 25.1871
rhand -32.5507 -24.5528
rfingers 7.12502
rthumb -5.78047 -54.454
lclavicle 1.31198e-014 -7.95139e-015
lhumerus 22.6303 -25.1654 94.3084
lradius 66.0559
lwrist 33.6162
lhand -0.995961 33.7396
lfingers 7.12502
lthumb 24.6361 62.174
rfemur -47.1881 -6.3183 13.8894
rtibia 23.3921
rfoot 2.20009 -19.6073
rtoes 9.71102
lfemur -14.4319 -3.4979 -20.8204
ltibia 36.2677
lfoot -23.5106 -1.28421
ltoes -13.928
100
root 30.1691 16.9151 5.91306 -14.0744 -84.544 26.6468
lowerback 14.663 -2.2364 3.69836
upperback 6.16554 -2.73365 -0.193183
thorax -1.86448 -1.42308 -1.84469
lowerneck -18.7962 -0.257713 -2.45326
upperneck 5.25063 -0.57155 6.7749
head 4.6221 0.0842525 2.47024
rclavicle 1.0138e-014 1.98785e-016
rhumerus 32.2231 29.8947 -71.9724
rradius 74.6234
rwrist 25.72
rhand -32.7575 -24.5811
rfingers 7.12502
rthumb -5.9801 -54.4767
lclavicle 1.0138e-014 1.98785e-016
lhumerus 23.596 -24.5279 94.2927
lradius 66.0075
lwrist 33.7194
lhand -1.24641 33.3471
lfingers 7.12502
lthumb 24.396 61.814
rfemur -47.6901 -6.16039 13.9546
rtibia 23.6073
rfoot 2.62076 -19.4747
rtoes 10.2209
lfemur -14.8731 -3.3151 -20.7096
ltibia 37.2699
lfoot -23.3599 -1.5168
ltoes -14.6949
101
root 30.0333 16.9028 5.90359 -14.5467 -84.7309 27.3942
lowerback 15.2042 -2.29823 3.89568
upperback 6.33669 -2.78093 -0.0616
thorax -1.97442 -1.45197 -1.79398
lowerneck -18.7076 -0.157524 -2.35578
upperneck 4.86844 -0.430287 6.60362
head 4.48054 0.134645 2.40972
rclavicle 1.31198e-014 -9.54166e-015
rhumerus 33.6653 29.5426 -71.4323
rradius 74.618
rwrist 26.2625
rhand -32.9853 -24.6247
rfingers 7.12502
rthumb -6.2 -54.5139
lclavicle 1.31198e-014 -9.54166e-015
lhumerus 24.5553 -23.8624 94.3044
lradius 65.912
lwrist 33.8468
lhand -1.52853 32.9459
lfingers 7.12502
lthumb 24.1255 61.449
rfemur -48.2075 -6.0191 14.0718
rtibia 23.9184
rfoot 3.01262 -19.2962
rtoes 10.7657
lfemur -15.3747 -3.12328 -20.5839
ltibia 38.3205
lfoot -23.1589 -1.74385
ltoes -15.4535
102
root 29.8973 16.8922 5.89388 -15.0254 -84.9387 28.158
lowerback 15.7577 -2.3542 4.09024
upperback 6.50508 -2.81841 0.0744928
thorax -2.0913 -1.47656 -1.7373
lowerneck -18.6189 -0.0571469 -2.2568
upperneck 4.48232 -0.289949 6.42834
head 4.33839 0.184469 2.34755
rclavicle -3.00165e-014 0
rhumerus 35.0935 29.1869 -70.9223
rradius 74.5842
rwrist 26.8139
rhand -33.227 -24.6823
rfingers 7.12502
rthumb -6.43334 -54.5645
lclavicle -3.00165e-014 0
lhumerus 25.5065 -23.1757 94.3464
lradius 65.77
lwrist 34.007
lhand -1.82431 32.5539
lfingers 7.12502
lthumb 23.8419 61.0942
rfemur -48.7355 -5.89422 14.2378
rtibia 24.3164
rfoot 3.38328 -19.0699
rtoes 11.3042
lfemur -15.9361 -2.92373 -20.4452
ltibia 39.4166
lfoot -22.9094 -1.96506
ltoes -16.1935
103
root 29.7615 16.8833 5.88398 -15.5082 -85.1637 28.9386
lowerback 16.3229 -2.40081 4.26532
upperback 6.66846 -2.84342 0.228049
thorax -2.21555 -1.49596 -1.65223
lowerneck -18.5331 0.041514 -2.16665
upperneck 4.09522 -0.149937 6.24145
head 4.19698 0.233531 2.28311
rclavicle 9.93923e-015 -4.37326e-015
rhumerus 36.5078 28.8358 -70.4209
rradius 74.5204
rwrist 27.3698
rhand -33.4854 -24.7556
rfingers 7.12502
rthumb -6.6828 -54.6301
lclavicle 9.93923e-015 -4.37326e-015
lhumerus 26.4479 -22.4686 94.4401
lradius 65.5831
lwrist 34.1929
lhand -2.11725 32.1709
lfingers 7.12502
lthumb 23.5609 60.7476
rfemur -49.275 -5.78436 14.448
rtibia 24.7937
rfoot 3.72351 -18.8051
rtoes 11.8411
lfemur -16.5635 -2.71998 -20.2949
ltibia 40.5582
lfoot -22.615 -2.17986
ltoes -16.8992
104
root 29.6256 16.8764 5.87388 -16.0169 -85.4071 29.7554
lowerback 16.8956 -2.44135 4.43289
upperback 6.83025 -2.85946 0.386143
thorax -2.34254 -1.51155 -1.55877
lowerneck -18.4489 0.140847 -2.0786
upperneck 3.70475 -0.00977811 6.0524
head 4.05541 0.282696 2.21829
rclavicle 5.1684e-015 -1.59028e-015
rhumerus 37.9034 28.4884 -69.9501
rradius 74.4236
rwrist 27.9363
rhand -33.7487 -24.7617
rfingers 7.12502
rthumb -6.93699 -54.628
lclavicle 5.1684e-015 -1.59028e-015
lhumerus 27.385 -21.7511 94.56
lradius 65.3534
lwrist 34.4096
lhand -2.41411 31.7997
lfingers 7.12502
lthumb 23.2762 60.4128
rfemur -49.8192 -5.68335 14.6986
rtibia 25.3385
rfoot 4.02971 -18.5062
rtoes 12.3698
lfemur -17.2525 -2.50957 -20.1342
ltibia 41.7377
lfoot -22.2775 -2.38429
ltoes -17.5674
105
root 29.4896 16.8713 5.86361 -16.5838 -85.6686 30.6405
lowerback 17.4733 -2.4746 4.58742
upperback 6.98978 -2.86595 0.549546
thorax -2.47134 -1.52314 -1.45332
lowerneck -18.364 0.239827 -1.98979
upperneck 3.31193 0.128693 5.85861
head 3.91369 0.330964 2.15166
rclavicle -3.57812e-015 -8.74653e-015
rhumerus 39.2777 28.15 -69.5085
rradius 74.2899
rwrist 28.5096
rhand -34.0053 -24.8214
rfingers 7.12502
rthumb -7.18466 -54.6795
lclavicle -3.57812e-015 -8.74653e-015
lhumerus 28.313 -21.0277 94.7105
lradius 65.0821
lwrist 34.6453
lhand -2.71043 31.4373
lfingers 7.12502
lthumb 22.9919 60.0861
rfemur -50.3673 -5.58871 14.9854
rtibia 25.9449
rfoot 4.29835 -18.1753
rtoes 12.892
lfemur -18.0031 -2.29134 -19.9659
ltibia 42.951
lfoot -21.9011 -2.57436
ltoes -18.1973
106
root 29.3536 16.8682 5.8532 -17.227 -85.9456 31.612
lowerback 18.0543 -2.50149 4.72966
upperback 7.14698 -2.86434 0.716059
thorax -2.60138 -1.53138 -1.33851
lowerneck -18.2789 0.338953 -1.90191
upperneck 2.91776 0.266153 5.66336
head 3.77223 0.378871 2.08459
rclavicle -6.75868e-015 2.38542e-015
rhumerus 40.6246 27.8252 -69.0985
rradius 74.1168
rwrist 29.0855
rhand -34.254 -24.8797
rfingers 7.12502
rthumb -7.42479 -54.7294
lclavicle -6.75868e-015 2.38542e-015
lhumerus 29.2311 -20.3054 94.8873
lradius 64.7728
lwrist 34.9009
lhand -3.00428 31.0836
lfingers 7.12502
lthumb 22.7099 59.7672
rfemur -50.9148 -5.49697 15.3029
rtibia 26.6012
rfoot 4.52828 -17.8205
rtoes 13.3967
lfemur -18.8145 -2.0663 -19.7918
ltibia 44.1913
lfoot -21.49 -2.74609
ltoes -18.7914
107
root 29.2175 16.8671 5.8427 -17.9642 -86.236 32.6866
lowerback 18.638 -2.52232 4.85852
upperback 7.30135 -2.85533 0.885624
thorax -2.73284 -1.53664 -1.21376
lowerneck -18.1949 0.437635 -1.81511
upperneck 2.52398 0.401728 5.46736
head 3.63175 0.426074 2.01726
rclavicle -2.26615e-014 5.1684e-015
rhumerus 41.9389 27.5198 -68.7204
rradius 73.904
rwrist 29.6628
rhand -34.5083 -24.9297
rfingers 7.12502
rthumb -7.67017 -54.7706
lclavicle -2.26615e-014 5.1684e-015
lhumerus 30.1374 -19.5896 95.0904
lradius 64.4298
lwrist 35.1904
lhand -3.29513 30.7422
lfingers 7.12502
lthumb 22.4307 59.4597
rfemur -51.4565 -5.40517 15.6454
rtibia 27.2961
rfoot 4.7165 -17.4463
rtoes 13.876
lfemur -19.6853 -1.83565 -19.6132
ltibia 45.453
lfoot -21.0489 -2.89843
ltoes -19.3375
108
root 29.0813 16.868 5.83214 -18.8295 -86.5389 33.8982
lowerback 19.2218 -2.53634 4.97216
upperback 7.45278 -2.83866 1.05778
thorax -2.86442 -1.5388 -1.07876
lowerneck -18.1094 0.535858 -1.72979
upperneck 2.13032 0.535463 5.27146
head 3.49179 0.472613 1.94999
rclavicle 2.42517e-014 1.19271e-014
rhumerus 43.2152 27.2353 -68.3757
rradius 73.6481
rwrist 30.2476
rhand -34.7682 -24.9901
rfingers 7.12502
rthumb -7.92101 -54.8217
lclavicle 2.42517e-014 1.19271e-014
lhumerus 31.0284 -18.8866 95.3187
lradius 64.0588
lwrist 35.5325
lhand -3.58326 30.4182
lfingers 7.12502
lthumb 22.1541 59.1689
rfemur -51.9896 -5.30993 16.0088
rtibia 28.0187
rfoot 4.86727 -17.0564
rtoes 14.3269
lfemur -20.6143 -1.59857 -19.4308
ltibia 46.7292
lfoot -20.5833 -3.02993
ltoes -19.8286
109
root 28.9449 16.8709 5.82154 -19.8712 -86.8524 35.2939
lowerback 19.8049 -2.54335 5.07023
upperback 7.6014 -2.81444 1.23166
thorax -2.99571 -1.53788 -0.934362
lowerneck -18.0249 0.632505 -1.64649
upperneck 1.73903 0.66579 5.07759
head 3.35346 0.517875 1.88338
rclavicle 2.54444e-014 3.10104e-014
rhumerus 44.4478 26.9731 -68.0654
rradius 73.35
rwrist 30.8406
rhand -35.0284 -25.0838
rfingers 7.12502
rthumb -8.17215 -54.9057
lclavicle 2.54444e-014 3.10104e-014
lhumerus 31.9033 -18.2014 95.5723
lradius 63.6613
lwrist 35.9334
lhand -3.86696 30.1136
lfingers 7.12502
lthumb 21.8817 58.8963
rfemur -52.5096 -5.21025 16.3891
rtibia 28.7599
rfoot 4.97798 -16.6538
rtoes 14.7598
lfemur -21.598 -1.35552 -19.2466
ltibia 48.0122
lfoot -20.1007 -3.13742
ltoes -20.2718
110
root 28.8083 16.8757 5.81097 -21.1465 -87.1747 36.9284
lowerback 20.3857 -2.54382 5.15254
upperback 7.74664 -2.78364 1.40704
thorax -3.12661 -1.53435 -0.780598
lowerneck -17.9379 0.727331 -1.56726
upperneck 1.35047 0.792806 4.88761
head 3.21628 0.561969 1.8183
rclavicle 2.74323e-014 -4.45278e-014
rhumerus 45.6282 26.7363 -67.7928
rradius 73.0086
rwrist 31.4406
rhand -35.283 -25.2142
rfingers 7.12502
rthumb -8.4179 -55.0265
lclavicle 2.74323e-014 -4.45278e-014
lhumerus 32.7542 -17.5355 95.8535
lradius 63.2417
lwrist 36.3828
lhand -4.1421 29.83
lfingers 7.12502
lthumb 21.6175 58.6433
rfemur -53.0103 -5.10385 16.7822
rtibia 29.5085
rfoot 5.05189 -16.241
rtoes 15.162
lfemur -22.6315 -1.10659 -19.0613
ltibia 49.2923
lfoot -19.6072 -3.21779
ltoes -20.6671
111
root 28.6714 16.8826 5.80044 -22.7579 -87.5022 38.9039
lowerback 20.9622 -2.53822 5.21809
upperback 7.88893 -2.7475 1.58306
thorax -3.25583 -1.52877 -0.617714
lowerneck -17.6679 0.806494 -1.58614
upperneck 0.557124 0.925169 4.63087
head 3.30227 0.590208 1.91927
rclavicle -1.86858e-014 -3.10104e-014
rhumerus 46.752 26.5266 -67.5575
rradius 72.624
rwrist 32.0388
rhand -35.5296 -25.3961
rfingers 7.12502
rthumb -8.65592 -55.1987
lclavicle -1.86858e-014 -3.10104e-014
lhumerus 33.5803 -16.8923 96.1613
lradius 62.8003
lwrist 36.8612
lhand -4.39817 29.5671
lfingers 7.12502
lthumb 21.3716 58.4085
rfemur -53.4883 -4.99091 17.1826
rtibia 30.256
rfoot 5.08696 -15.8231
rtoes 15.5308
lfemur -23.7121 -0.852785 -18.8772
ltibia 50.5625
lfoot -19.11 -3.26978
ltoes -21.017
112
root 28.5342 16.8913 5.79 -24.8304 -87.832 41.3465
lowerback 21.5286 -2.5265 5.26913
upperback 8.02759 -2.70606 1.75824
thorax -3.38138 -1.52102 -0.448834
lowerneck -17.5755 0.896373 -1.51009
upperneck 0.192495 1.04159 4.45837
head 3.15045 0.632078 1.84771
rclavicle -1.51076e-014 -5.68524e-014
rhumerus 47.8102 26.3414 -67.3664
rradius 72.1962
rwrist 32.6364
rhand -35.7568 -25.6183
rfingers 7.12502
rthumb -8.87515 -55.4116
lclavicle -1.51076e-014 -5.68524e-014
lhumerus 34.3751 -16.28 96.4915
lradius 62.342
lwrist 37.3574
lhand -4.63705 29.3211
lfingers 7.12502
lthumb 21.1421 58.1884
rfemur -53.9432 -4.87088 17.5867
rtibia 30.9944
rfoot 5.08239 -15.4051
rtoes 15.8685
lfemur -24.8399 -0.596086 -18.6948
ltibia 51.8152
lfoot -18.6161 -3.29164
ltoes -21.3193
